# xmcd
#
# Track frame offsets: 
#        150
#        12568
#        21410
#        33111
#        41358
#        53151
#        60079
#        76368
#        87317
#        101373
#        113350
#        125715
#
# Disc length: 1848 seconds
#
# Revision: 0
# Processed by: cddbd v1.5.2PL0 Copyright (c) Steve Scherf et al.
# Submitted via: ExactAudioCopy v1.0b3
#
DISCID=8707360c
DTITLE=Anita Kerr and Living Voices - Hootenanny Favorites
DYEAR=1963
DGENRE=Country
TTITLE0=John Henry
TTITLE1=Walk Right In
TTITLE2=Shenandoah
TTITLE3=When Johnny Comes Marching Home
TTITLE4=Beautiful Brown Eyes
TTITLE5=Rye Whiskey
TTITLE6=Green Fields
TTITLE7=Marianne
TTITLE8=Venezuela
TTITLE9=Greenback Dollar
TTITLE10=Rovin' Gambler
TTITLE11=On Top Of Old Smokey
EXTD=
EXTT0=
EXTT1=
EXTT2=
EXTT3=
EXTT4=
EXTT5=
EXTT6=
EXTT7=
EXTT8=
EXTT9=
EXTT10=
EXTT11=
PLAYORDER=
